<svg xmlns="http://www.w3.org/2000/svg" xmlns:xlink="http://www.w3.org/1999/xlink" width="310.839" height="317.967" viewBox="0 0 310.839 317.967">
    <defs>
        <clipPath id="clip-path">
            <path id="Path_43"  d="M280.807,279.658s-2.372,6.2-4.2,9.851-4.925,19.154-5.655,26.816-1.824,17.33-1.824,17.33-4.2,7.661-6.2,10.58S258,348.8,259.646,350.8s5.655-.73,8.573-2.372,3.284-4.56,4.926-5.29,5.108-.183,4.561-4.926-3.1-7.114-2.554-8.391,4.378-13.864,6.02-17.148,5.291-7.114,6.75-12.223a42.49,42.49,0,0,0,1.277-11.127s3.466-6.932,4.013-7.3S282.813,281.118,280.807,279.658Z" transform="translate(-259.164 -279.658)" fill="#fff" stroke="#263238" stroke-linecap="round" stroke-linejoin="round" stroke-width="1"/>
        </clipPath>
        <clipPath id="clip-path-2">
            <path id="Path_50"  d="M342.943,279.971l4.2,6.384s1.825,8.391,4.561,13.864,9.486,14.777,12.77,18.789,4.379,11.858,4.379,11.858-1.642,3.466-.548,6.02,4.2,4.379,4.743,6.749,3.831,8.027,6.384,7.662,4.2-3.649,2.189-8.391-5.838-8.391-6.932-13.317-4.561-25.357-7.479-31.741a74.815,74.815,0,0,0-5.838-10.581l-2.737-10.945S348.416,281.795,342.943,279.971Z" transform="translate(-342.943 -276.322)" fill="#fff" stroke="#263238" stroke-linecap="round" stroke-linejoin="round" stroke-width="1"/>
        </clipPath>
        <clipPath id="clip-path-3">
            <path id="Path_58"  d="M349.137,210.736s.365.365-1.277,1.46-5.655,2.007-4.743,3.466,1.824,2.189,1.095,2.737-1.825.547-2.737,1.277-3.649-8.026-3.649-8.026S344.577,208.365,349.137,210.736Z" transform="translate(-337.827 -209.876)" fill="#fff" stroke="#263238" stroke-linecap="round" stroke-linejoin="round" stroke-width="1"/>
        </clipPath>
        <clipPath id="clip-path-4">
            <path id="Path_67"  d="M334.636,214.748l-1.184-4.045-32.836,6.2-.292,1.69a37.725,37.725,0,0,0,16.528,1.046A84.371,84.371,0,0,0,334.636,214.748Z" transform="translate(-300.324 -210.703)" fill="#fff" stroke="#263238" stroke-linecap="round" stroke-linejoin="round" stroke-width="1"/>
        </clipPath>
        <clipPath id="clip-path-5">
            <path id="Path_73"  d="M346.955,121.887a111.921,111.921,0,0,0-7.1-18.914c-2.217-4.73-4.427-10.652-7.855-14.651-2.189-2.554-6.2-4.561-7.114-4.2s-4.926,2.007-4.926,4.2,1.46,2.189,1.46,2.189-.365,2.737.73,3.831,6.749.73,6.749.73a23.926,23.926,0,0,1,2.5,4.743c1.094,3.648,2.058,4.378,2.788,10.945a131.421,131.421,0,0,0,3.1,15.506,6.915,6.915,0,0,0-1.824,1.642c-1.095,1.277-8.027,8.209-8.027,8.209a42.778,42.778,0,0,1-6.2,2.371,30.355,30.355,0,0,0-5.4,2.258c-1.123-.129-2.255-.251-2.858-.251-1.277,0-10.216,1.642-10.216,1.642a30.329,30.329,0,0,0-6.567-2.919,42.87,42.87,0,0,1-6.2-2.372s-6.932-6.932-8.026-8.208A6.914,6.914,0,0,0,280.138,127a131.46,131.46,0,0,0,3.1-15.507c.59-5.3,2.109-11.318,5.29-15.688,0,0,5.655.365,6.749-.73s.73-3.831.73-3.831,1.459,0,1.459-2.189-4.013-3.831-4.925-4.2-4.926,1.642-7.114,4.2-2.007,5.108-4.2,8.756-9.85,21.343-10.762,24.809-2.007,5.473-1.825,7.114,8.939,11.128,11.128,13.682,10.58,11.31,10.58,11.31,3.1,15.324,4.014,20.8.365,20.614.365,20.614,10.033-2.19,19.519-3.284,19.883-4.743,21.16-4.743h1.277s-7.114-8.756-7.114-10.033c0-1.019.233-19.6.326-27.046,2.648-2.788,6.393-6.758,7.752-8.344C339.84,140.13,348.6,130.645,348.779,129S347.867,125.354,346.955,121.887Z" transform="translate(-268.625 -84.084)" fill="#fff" stroke="#263238" stroke-linecap="round" stroke-linejoin="round" stroke-width="1"/>
        </clipPath>
        <clipPath id="clip-path-6">
            <path id="Path_92"  d="M326.723,141.9s.995-2.817,2.32-1.492.663,4.144-.166,5.3-1.492.5-1.989-.829A6.33,6.33,0,0,1,326.723,141.9Z" transform="translate(-326.615 -140.053)" fill="#fff" stroke="#263238" stroke-linecap="round" stroke-linejoin="round" stroke-width="1"/>
        </clipPath>
        <clipPath id="clip-path-7">
            <path id="Path_96"  d="M306.01,144s-1.718-2.444-2.637-.809.48,4.169,1.591,5.062,1.571.076,1.692-1.334A6.33,6.33,0,0,0,306.01,144Z" transform="translate(-303.075 -142.625)" fill="#fff" stroke="#263238" stroke-linecap="round" stroke-linejoin="round" stroke-width="1"/>
        </clipPath>
        <clipPath id="clip-path-8">
            <path id="Path_102"  d="M311.994,155.772s4.309,11.271,6.63,10.442,2.983-10.773,2.983-10.773S314.48,156.933,311.994,155.772Z" transform="translate(-311.994 -155.441)" fill="#fff" stroke="#263238" stroke-linecap="round" stroke-linejoin="round" stroke-width="1"/>
        </clipPath>
        <clipPath id="clip-path-9">
            <path id="Path_107"  d="M305.089,136.6a87.144,87.144,0,0,0,1.823,10.607c.995,3.315,4.841,6.325,9.979,5.5s6.927-8.313,6.927-8.81-.332-9.448-2.321-12.762-5.8-6.464-11.105-3.978A8.784,8.784,0,0,0,305.089,136.6Z" transform="translate(-304.94 -126.259)" fill="#fff" stroke="#263238" stroke-linecap="round" stroke-linejoin="round" stroke-width="1"/>
        </clipPath>
        <clipPath id="clip-path-10">
            <path id="Path_145"  d="M164.56,171.153a69.13,69.13,0,0,0-1.338,10.108c0,3.567,3.567,11.148,4.757,14.567s2.675,19.322,2.675,19.769c0,.126.06,1.006.145,2.2,5.259,1.463,16.105,1.963,29.028-11.585-2.349-2.387-4.915-4.6-7.031-7.184-1.488-1.817-2.633-3.163-2.522-3.944.172-1.2,1.584-7.269,2.861-12.435L197.12,175c.986-1.022,5.379-6.576,5.788-7.265,2.378-4.014,14.121-15.9,15.31-16.945s3.864-6.986,5.946-15.9c.768-3.292,1.678-7.13,2.52-10.664a18.974,18.974,0,0,1-4.824-1.707c-1.434,2.806-2.844,5.607-3.642,7.317-2.081,4.459-7.58,15.16-7.58,15.16l-13.824,14.418s-2.081,1.041-5.648,3.121c-.339.2-.689.413-1.043.635l-6.538,1.447-5.648-1.041a94.144,94.144,0,0,0-8.324-5.8c-3.567-2.081-5.648-3.121-5.648-3.121l-13.824-14.417s-5.5-10.7-7.58-15.161c-.958-2.054-2.8-5.682-4.506-9a43.1,43.1,0,0,1-4.392,1.584c.954,3.991,2.05,8.607,2.952,12.47,2.081,8.919,4.757,14.864,5.946,15.9s12.931,12.931,15.31,16.945A47.564,47.564,0,0,0,164.56,171.153Z" transform="translate(-133.664 -116.076)" fill="#c6ff00" stroke="#263238" stroke-linecap="round" stroke-linejoin="round" stroke-width="1"/>
        </clipPath>
        <clipPath id="clip-path-11">
            <path id="Path_150"  d="M184.925,159.855s.148,9.364-.595,11.594-4.905,6.54-3.122,10.107,8.324-.445,10.7-4.756,1.189-5.649,1.189-5.649v-6.54Z" transform="translate(-180.768 -159.855)" fill="#fff" stroke="#263238" stroke-linecap="round" stroke-linejoin="round" stroke-width="1"/>
        </clipPath>
        <clipPath id="clip-path-12">
            <path id="Path_155"  d="M183.024,149.63s-2.824-2.676-3.567-.744,1.189,4.757,2.23,5.054l1.04.3a11.926,11.926,0,0,0,2.973,5.648c2.378,2.378,5.054,3.567,8.026,2.081s5.351-5.2,6.094-9.662a25.052,25.052,0,0,0,.446-6.689c0-.743-1.338-6.094-5.2-7.432s-3.419.3-6.392,3.716A69.847,69.847,0,0,0,183.024,149.63Z" transform="translate(-179.291 -137.719)" fill="#fff" stroke="#263238" stroke-linecap="round" stroke-linejoin="round" stroke-width="1"/>
        </clipPath>
    </defs>
    <g id="Group_12021"  transform="translate(-37.37 -182.189)">
        <g id="Background_Simple"  transform="translate(37.37 182.189)">
            <g id="Group_1"  transform="translate(0 0)">
                <path id="Path_2"  d="M295.938,78.383S248.662,49.09,195.795,68.844,110.336,142.991,82.806,186.265,61,280.63,95.36,310.588s64.071,2.657,116.617,12.048,65.561,20.311,113.18-2.054,65.37-95.056,38.437-157.247S295.938,78.383,295.938,78.383Z" transform="translate(-65.37 -62)" fill="#efeef6"/>
            </g>
        </g>
        <g id="Clouds" transform="translate(45.659 206.242)">
            <path id="Path_3"  d="M292.307,122.181c-.827-4.383-2.587-11.123-5.836-13.4-4.962-3.473-9.924,3.969-15.878,4.962s3.473-18.359-6.947-21.832-13.4,9.428-16.87,15.382-8.436-2.481-12.9-.992-1.985,9.428-6.45,10.42-11.909-4.962-15.382-1.488c-3.3,3.3-3.475,3.917-8.16,6.946Z" transform="translate(-98.576 -91.33)" fill="#fff"/>
            <path id="Path_4"  d="M133.4,267.121c-.542-2.872-1.694-7.286-3.823-8.776-3.25-2.275-6.5,2.6-10.4,3.25s2.275-12.025-4.551-14.3-8.776,6.175-11.051,10.076-5.525-1.625-8.45-.65-1.3,6.175-4.225,6.825-7.8-3.25-10.076-.975a22.774,22.774,0,0,1-5.345,4.551Z" transform="translate(-75.477 -119.318)" fill="#fff"/>
            <path id="Path_5"  d="M397.57,226.47c-1.67-8.842-5.218-22.433-11.77-27.019-10.007-7.005-20.015,8.006-32.023,10.007s7-37.026-14.01-44.031-27.019,19.013-34.025,31.022-17.012-5-26.019-2-4,19.013-13.009,21.014-24.017-10.007-31.022-3c-6.654,6.653-7.006,7.9-16.455,14.01Z" transform="translate(-101.339 -104.447)" fill="#fff"/>
        </g>
        <g id="Trees" transform="translate(58.693 391.609)">
            <g id="Group_6"  transform="translate(180.932 1.512)">
                <g id="Group_3"  transform="translate(43.109 24.806)">
                    <path id="Path_6"  d="M369.423,384.8s11.156,1.1,16.811,8.021a21.587,21.587,0,0,1,16.7-7.848,21.685,21.685,0,1,0-33.518-.153Z" transform="translate(-364.556 -349.449)" fill="#e4e3fc"/>
                    <g id="Group_2"  transform="translate(11.14 1.529)">
                        <path id="Path_8"  d="M390.456,351.313l-.377,55.928h1.883Z" transform="translate(-380.288 -351.313)" fill="#263238"/>
                        <path id="Path_9"  d="M391.187,397.821s3.766-6.779,10.545-8.851c0,0-7.155,1.7-10.734,7.533Z" transform="translate(-380.453 -358.088)" fill="#263238"/>
                        <path id="Path_10"  d="M391.187,374.4s3.766-6.779,10.545-8.851c0,0-7.155,1.7-10.734,7.533Z" transform="translate(-380.453 -353.874)" fill="#263238"/>
                        <path id="Path_11"  d="M391.187,386.111s3.766-6.779,10.545-8.851c0,0-7.155,1.694-10.734,7.532Z" transform="translate(-380.453 -355.981)" fill="#263238"/>
                        <path id="Path_12"  d="M388.315,380.37s-3.634-6.779-10.175-8.851c0,0,6.9,1.7,10.357,7.533Z" transform="translate(-378.14 -354.948)" fill="#263238"/>
                        <path id="Path_13"  d="M388.315,391.851s-3.634-6.779-10.175-8.851c0,0,6.9,1.7,10.357,7.533Z" transform="translate(-378.14 -357.014)" fill="#263238"/>
                    </g>
                </g>
                <g id="Group_5" >
                    <path id="Path_14"  d="M318.508,366.54s14.939,1.478,22.511,10.739c0,0,8-10.729,22.368-10.509a29.039,29.039,0,1,0-44.884-.206Z" transform="translate(-311.991 -319.202)" fill="#e4e3fc"/>
                    <g id="Group_4"  transform="translate(14.918 2.048)">
                        <path id="Path_16"  d="M346.674,321.7l-.5,74.893h2.522Z" transform="translate(-333.057 -321.699)" fill="#263238"/>
                        <path id="Path_17"  d="M347.652,383.977s5.043-9.079,14.121-11.852c0,0-9.582,2.27-14.374,10.086Z" transform="translate(-333.278 -330.77)" fill="#263238"/>
                        <path id="Path_18"  d="M347.652,352.614s5.043-9.078,14.121-11.851c0,0-9.582,2.269-14.374,10.086Z" transform="translate(-333.278 -325.128)" fill="#263238"/>
                        <path id="Path_19"  d="M347.652,368.3s5.043-9.078,14.121-11.851c0,0-9.582,2.269-14.374,10.086Z" transform="translate(-333.278 -327.949)" fill="#263238"/>
                        <path id="Path_20"  d="M343.806,360.609s-4.866-9.079-13.625-11.852c0,0,9.246,2.269,13.869,10.086Z" transform="translate(-330.181 -326.567)" fill="#263238"/>
                        <path id="Path_21"  d="M343.806,375.982s-4.866-9.078-13.625-11.851c0,0,9.246,2.269,13.869,10.086Z" transform="translate(-330.181 -329.332)" fill="#263238"/>
                    </g>
                </g>
            </g>
            <g id="Group_11"  transform="translate(0 0)">
                <g id="Group_8"  transform="translate(50.363)">
                    <path id="Path_22"  d="M159.451,365.811s15.292,1.513,23.042,10.993c0,0,8.188-10.982,22.895-10.756a29.723,29.723,0,1,0-45.942-.211Z" transform="translate(-152.781 -317.358)" fill="#e4e3fc"/>
                    <g id="Group_7"  transform="translate(15.269 2.096)">
                        <path id="Path_24"  d="M188.28,319.913l-.516,76.657h2.581Z" transform="translate(-174.343 -319.913)" fill="#263238"/>
                        <path id="Path_25"  d="M189.281,383.659s5.162-9.292,14.454-12.131c0,0-9.808,2.323-14.712,10.324Z" transform="translate(-174.569 -329.199)" fill="#263238"/>
                        <path id="Path_26"  d="M189.281,351.557s5.162-9.292,14.454-12.131c0,0-9.808,2.323-14.712,10.324Z" transform="translate(-174.569 -323.424)" fill="#263238"/>
                        <path id="Path_27"  d="M189.281,367.608s5.162-9.292,14.454-12.131c0,0-9.808,2.323-14.712,10.324Z" transform="translate(-174.569 -326.311)" fill="#263238"/>
                        <path id="Path_28"  d="M185.346,359.74s-4.981-9.292-13.947-12.131c0,0,9.463,2.323,14.2,10.324Z" transform="translate(-171.399 -324.896)" fill="#263238"/>
                        <path id="Path_29"  d="M185.346,375.476s-4.981-9.292-13.947-12.131c0,0,9.463,2.323,14.2,10.324Z" transform="translate(-171.399 -327.726)" fill="#263238"/>
                    </g>
                </g>
                <g id="Group_10"  transform="translate(0 25.889)">
                    <path id="Path_30"  d="M96.548,386.528s11.867,1.174,17.882,8.531a22.964,22.964,0,0,1,17.768-8.348,23.066,23.066,0,1,0-35.654-.163Z" transform="translate(-91.371 -348.926)" fill="#e4e3fc"/>
                    <g id="Group_9"  transform="translate(11.849 1.626)">
                        <path id="Path_32"  d="M118.92,350.909l-.4,59.49h2Z" transform="translate(-108.104 -350.909)" fill="#263238"/>
                        <path id="Path_33"  d="M119.7,400.379s4.006-7.211,11.217-9.414c0,0-7.612,1.8-11.418,8.012Z" transform="translate(-108.28 -358.115)" fill="#263238"/>
                        <path id="Path_34"  d="M119.7,375.466s4.006-7.211,11.217-9.414c0,0-7.612,1.8-11.418,8.012Z" transform="translate(-108.28 -353.633)" fill="#263238"/>
                        <path id="Path_35"  d="M119.7,387.923s4.006-7.211,11.217-9.415c0,0-7.612,1.8-11.418,8.012Z" transform="translate(-108.28 -355.874)" fill="#263238"/>
                        <path id="Path_36"  d="M116.643,381.816s-3.866-7.21-10.824-9.414c0,0,7.345,1.8,11.017,8.012Z" transform="translate(-105.819 -354.775)" fill="#263238"/>
                        <path id="Path_37"  d="M116.643,394.029s-3.866-7.211-10.824-9.415c0,0,7.345,1.8,11.017,8.012Z" transform="translate(-105.819 -356.972)" fill="#263238"/>
                    </g>
                </g>
            </g>
        </g>
        <g id="Ground" transform="translate(40.078 445.847)">
            <g id="Group_12"  transform="translate(0 0)">
                <path id="Path_38"  d="M361.7,409.571l-4.659-.822c-.394-.216-.815-.418-1.252-.613l3.708-3.708-11.02.735-1.1-1.836-2.938.734-1.47-3.672-4.04,1.469-1.1-5.142-3.673,1.836-3.672-2.938-1.1,2.2-2.938-.735-1,1.5-.937-.239-1.367-2.734-4.506,1.325c-.814-.185-1.629-.37-2.445-.548l-.763-1.144h-4.732c-.265-.053-.53-.108-.8-.161l-.349-3.145-5.877.367L300.731,389l-2.571,2.938-1.47-1.47-1.836.735-2.571-3.306s-2.2,3.306-3.673,3.673S284.57,389,284.57,389l-1.5,2c-.553-.062-1.106-.121-1.659-.181l-1.247-1.454L278,390.452c-.3-.03-.593-.052-.889-.08l-.618-2.472-4.407,1.47-2.938-2.572-1.722,2.756c-.4-.03-.8-.06-1.2-.088L264.369,389l-4.041-1.1-1.469.735-4.775-4.041v4.18l-.43-.018-4.712-2.692-.622,2.487c-.431-.013-.864-.022-1.295-.035L246,386.064l-4.365,2.31c-.683-.013-1.366-.017-2.05-.028l-.2-1.181-7.346.735-2.571-4.407-2.2,4.04L224.7,383.86l-2.241,4.483c-.817.012-1.633.016-2.449.032l-1.554-1.209-.359,1.257c-.686.015-1.372.034-2.058.052l-2.726-2.044-.367,1.836-2.938-1.1-2.89,1.606-.556.021-1.329-1.994-4.407,1.47-1.288.859c-.764.04-1.527.076-2.291.12l-.463-2.081-5.118,2.424q-1.266.084-2.532.17c-.863-.869-2.369-2.227-3.368-2.227a2.718,2.718,0,0,0-2.2,1.47l-1.47-1.1-1.681,2.523-1.1.093L178.053,389l-3.673,1.836-1.469-3.306-4.041,3.306-.735-2.571-4.04,2.571-2.572-2.938-2.638,4.618-.795.091-2.443-2.138-2.131,2.662c-.485.058-.969.121-1.455.18l-1.925-2.475-.734,1.836-3.306-1.836-1.837,3.306-3.672-1.47-4.19,2.693c-1.671.235-3.344.469-5.013.714l-2.183-1.571-1.837,1.1-2.571-1.1-.734,2.2-2.572-.735-1.935,1.936-.358.059-1.012-2.363-3.673,2.2-2.2-2.938-2.938,3.672-4.775.367-4.407.367-3.306,1.47-3.186,1.806-2.323-.337-2.077,1.384-.217.059-2.48-.709-1.837,1.1-3.306-.367-.5,2.524c-.791.29-1.576.6-2.347.913-.731-.071-1.477-.132-1.923-.132-.419,0-1.05.8-1.671,1.785-5.347,2.772-8.632,6.237-4.4,9.965,5.568,4.908,19.706,2.751,26.2,2.319,27.919-1.857,48.932-7.7,59.761-6.746S124.408,437.8,170.889,437.8s141.855-5.372,155.822-6.689-13.837-6.429-9.861-12.559,36.426-.94,41.873-2.4c3.622-.969,2.473-3.387,1.3-4.9Z" transform="translate(-68.672 -383.493)" fill="#918ec2"/>
                <path id="Path_39"  d="M361.7,409.571l-4.659-.822c-.394-.216-.815-.418-1.252-.613l3.708-3.708-11.02.735-1.1-1.836-2.938.734-1.47-3.672-4.04,1.469-1.1-5.142-3.673,1.836-3.672-2.938-1.1,2.2-2.938-.735-1,1.5-.937-.239-1.367-2.734-4.506,1.325c-.814-.185-1.629-.37-2.445-.548l-.763-1.144h-4.732c-.265-.053-.53-.108-.8-.161l-.349-3.145-5.877.367L300.731,389l-2.571,2.938-1.47-1.47-1.836.735-2.571-3.306s-2.2,3.306-3.673,3.673S284.57,389,284.57,389l-1.5,2c-.553-.062-1.106-.121-1.659-.181l-1.247-1.454L278,390.452c-.3-.03-.593-.052-.889-.08l-.618-2.472-4.407,1.47-2.938-2.572-1.722,2.756c-.4-.03-.8-.06-1.2-.088L264.369,389l-4.041-1.1-1.469.735-4.775-4.041v4.18l-.43-.018-4.712-2.692-.622,2.487c-.431-.013-.864-.022-1.295-.035L246,386.064l-4.365,2.31c-.683-.013-1.366-.017-2.05-.028l-.2-1.181-7.346.735-2.571-4.407-2.2,4.04L224.7,383.86l-2.241,4.483c-.817.012-1.633.016-2.449.032l-1.554-1.209-.359,1.257c-.686.015-1.372.034-2.058.052l-2.726-2.044-.367,1.836-2.938-1.1-2.89,1.606-.556.021-1.329-1.994-4.407,1.47-1.288.859c-.764.04-1.527.076-2.291.12l-.463-2.081-5.118,2.424q-1.266.084-2.532.17c-.863-.869-2.369-2.227-3.368-2.227a2.718,2.718,0,0,0-2.2,1.47l-1.47-1.1-1.681,2.523-1.1.093L178.053,389l-3.673,1.836-1.469-3.306-4.041,3.306-.735-2.571-4.04,2.571-2.572-2.938-2.638,4.618-.795.091-2.443-2.138-2.131,2.662c-.485.058-.969.121-1.455.18l-1.925-2.475-.734,1.836-3.306-1.836-1.837,3.306-3.672-1.47-4.19,2.693c-1.671.235-3.344.469-5.013.714l-2.183-1.571-1.837,1.1-2.571-1.1-.734,2.2-2.572-.735-1.935,1.936-.358.059-1.012-2.363-3.673,2.2-2.2-2.938-2.938,3.672-4.775.367-4.407.367-3.306,1.47-3.186,1.806-2.323-.337-2.077,1.384-.217.059-2.48-.709-1.837,1.1-3.306-.367-.5,2.524c-.791.29-1.576.6-2.347.913-.731-.071-1.477-.132-1.923-.132-.419,0-1.05.8-1.671,1.785-5.347,2.772-8.632,6.237-4.4,9.965,5.568,4.908,19.706,2.751,26.2,2.319,27.919-1.857,48.932-7.7,59.761-6.746S124.408,437.8,170.889,437.8s141.855-5.372,155.822-6.689-13.837-6.429-9.861-12.559,36.426-.94,41.873-2.4c3.622-.969,2.473-3.387,1.3-4.9Z" transform="translate(-68.672 -383.493)" fill="#918ec2"/>
            </g>
        </g>
        <g id="Character_2"  transform="translate(196.302 200.3)">
            <g id="Group_43"  transform="translate(0 0)">
                <g id="Group_16"  transform="translate(0 160.391)">
                    <g id="Group_14" >
                        <path id="Path_40"  d="M280.807,279.658s-2.372,6.2-4.2,9.851-4.925,19.154-5.655,26.816-1.824,17.33-1.824,17.33-4.2,7.661-6.2,10.58S258,348.8,259.646,350.8s5.655-.73,8.573-2.372,3.284-4.56,4.926-5.29,5.108-.183,4.561-4.926-3.1-7.114-2.554-8.391,4.378-13.864,6.02-17.148,5.291-7.114,6.75-12.223a42.49,42.49,0,0,0,1.277-11.127s3.466-6.932,4.013-7.3S282.813,281.118,280.807,279.658Z" transform="translate(-259.164 -279.658)" fill="#fff"/>
                        <g id="Group_13"  clip-path="url(#clip-path)">
                            <path id="Path_41"  d="M280.807,279.658s-2.372,6.2-4.2,9.851-4.925,19.154-5.655,26.816-1.824,17.33-1.824,17.33-4.2,7.661-6.2,10.58S258,348.8,259.646,350.8s5.655-.73,8.573-2.372,3.284-4.56,4.926-5.29,5.108-.183,4.561-4.926-3.1-7.114-2.554-8.391,4.378-13.864,6.02-17.148,5.291-7.114,6.75-12.223a42.49,42.49,0,0,0,1.277-11.127s3.466-6.932,4.013-7.3S282.813,281.118,280.807,279.658Z" transform="translate(-259.164 -279.658)" fill="#d9d9d9" stroke="#263238" stroke-linecap="round" stroke-linejoin="round" stroke-width="1"/>
                            <path id="Path_42"  d="M280.584,286.084c1.591.846,4.641,2.329,6.511,2.329h2.615s2.035,4.649-1.452,12.5-9.59,17.144-11.043,23.247c-.809,3.4-2.97,14.007-4.726,22.742,1.332-1.519,1.853-3.221,3.053-3.754,1.642-.73,5.108-.183,4.561-4.926s-3.1-7.114-2.554-8.391,4.378-13.864,6.02-17.148,5.29-7.114,6.75-12.223a42.489,42.489,0,0,0,1.277-11.127s3.466-6.932,4.013-7.3-10.4-.912-12.4-2.372C283.2,279.658,281.961,282.906,280.584,286.084Z" transform="translate(-261.561 -279.658)" opacity="0.25"/>
                        </g>
                        <path id="Path_44"  d="M280.807,279.658s-2.372,6.2-4.2,9.851-4.925,19.154-5.655,26.816-1.824,17.33-1.824,17.33-4.2,7.661-6.2,10.58S258,348.8,259.646,350.8s5.655-.73,8.573-2.372,3.284-4.56,4.926-5.29,5.108-.183,4.561-4.926-3.1-7.114-2.554-8.391,4.378-13.864,6.02-17.148,5.291-7.114,6.75-12.223a42.49,42.49,0,0,0,1.277-11.127s3.466-6.932,4.013-7.3S282.813,281.118,280.807,279.658Z" transform="translate(-259.164 -279.658)" fill="none" stroke="#263238" stroke-linecap="round" stroke-linejoin="round" stroke-width="1"/>
                    </g>
                    <g id="Group_15"  transform="translate(0 50.637)">
                        <path id="Path_45"  d="M259.646,361.91c1.642,2.007,5.655-.73,8.573-2.372s3.284-4.56,4.926-5.29,5.108-.183,4.561-4.926c-.486-4.217-2.554-6.557-2.624-7.921a6.444,6.444,0,0,1-2.3,3.361c-2.371,2.007-3.648,0-3.648,0s-4.2,7.661-6.2,10.58S258,359.9,259.646,361.91Z" transform="translate(-259.164 -341.402)" fill="#263238" stroke="#263238" stroke-linecap="round" stroke-linejoin="round" stroke-width="1"/>
                        <path id="Path_46"  d="M277.72,351.124a13.686,13.686,0,0,1-2.922,1.955c-3.1,1.459-3.831,4.2-8.209,7.661a8.848,8.848,0,0,1-7.365,2.063,2.028,2.028,0,0,0,.434.856c1.642,2.007,5.655-.73,8.573-2.372s3.284-4.56,4.926-5.29S278.234,355.808,277.72,351.124Z" transform="translate(-259.175 -343.151)" fill="#fff" stroke="#263238" stroke-linecap="round" stroke-linejoin="round" stroke-width="1"/>
                    </g>
                </g>
                <g id="Group_21"  transform="translate(68.707 157.656)">
                    <g id="Group_18" >
                        <path id="Path_47"  d="M342.943,279.971l4.2,6.384s1.825,8.391,4.561,13.864,9.486,14.777,12.77,18.789,4.379,11.858,4.379,11.858-1.642,3.466-.548,6.02,4.2,4.379,4.743,6.749,3.831,8.027,6.384,7.662,4.2-3.649,2.189-8.391-5.838-8.391-6.932-13.317-4.561-25.357-7.479-31.741a74.815,74.815,0,0,0-5.838-10.581l-2.737-10.945S348.416,281.795,342.943,279.971Z" transform="translate(-342.943 -276.322)" fill="#fff"/>
                        <g id="Group_17"  clip-path="url(#clip-path-2)">
                            <path id="Path_48"  d="M342.943,279.971l4.2,6.384s1.825,8.391,4.561,13.864,9.486,14.777,12.77,18.789,4.379,11.858,4.379,11.858-1.642,3.466-.548,6.02,4.2,4.379,4.743,6.749,3.831,8.027,6.384,7.662,4.2-3.649,2.189-8.391-5.838-8.391-6.932-13.317-4.561-25.357-7.479-31.741a74.815,74.815,0,0,0-5.838-10.581l-2.737-10.945S348.416,281.795,342.943,279.971Z" transform="translate(-342.943 -276.322)" fill="#d9d9d9" stroke="#263238" stroke-linecap="round" stroke-linejoin="round" stroke-width="1"/>
                            <path id="Path_49"  d="M367.206,297.848a74.815,74.815,0,0,0-5.838-10.581l-2.737-10.945s-10.215,5.473-15.689,3.649l4.17,6.346c.716.025,1.5.043,2.346.043a18.3,18.3,0,0,0,6.684-1.453s6.974,11.043,10.461,20.341c2.419,6.452,5.536,16.256,7.608,22.046C372.794,320.113,369.787,303.493,367.206,297.848Z" transform="translate(-342.943 -276.322)" opacity="0.25"/>
                        </g>
                        <path id="Path_51"  d="M342.943,279.971l4.2,6.384s1.825,8.391,4.561,13.864,9.486,14.777,12.77,18.789,4.379,11.858,4.379,11.858-1.642,3.466-.548,6.02,4.2,4.379,4.743,6.749,3.831,8.027,6.384,7.662,4.2-3.649,2.189-8.391-5.838-8.391-6.932-13.317-4.561-25.357-7.479-31.741a74.815,74.815,0,0,0-5.838-10.581l-2.737-10.945S348.416,281.795,342.943,279.971Z" transform="translate(-342.943 -276.322)" fill="none" stroke="#263238" stroke-linecap="round" stroke-linejoin="round" stroke-width="1"/>
                    </g>
                    <g id="Group_20"  transform="translate(24.981 54.544)">
                        <path id="Path_52"  d="M387.1,354.871c-1.73-4.089-4.812-7.366-6.331-11.348a4.9,4.9,0,0,1-1.33,2.044c-2.007,1.642-5.108-2.736-5.108-2.736s-1.642,3.466-.548,6.02,4.2,4.379,4.743,6.749,3.831,8.027,6.384,7.662S389.1,359.614,387.1,354.871Z" transform="translate(-373.404 -342.831)" fill="#263238" stroke="#263238" stroke-linecap="round" stroke-linejoin="round" stroke-width="1"/>
                        <g id="Group_19"  transform="translate(0.002 2.8)">
                            <path id="Path_53"  d="M378.523,356.214a11.7,11.7,0,0,0,.985,2.472,5.585,5.585,0,0,1-.256-.647c-.912-2.919-1.459-6.567-3.466-8.391a10.321,10.321,0,0,1-2.284-3.4,5.969,5.969,0,0,0,.277,3.22C374.875,352.019,377.976,353.843,378.523,356.214Z" transform="translate(-373.406 -346.245)" fill="#fff" stroke="#263238" stroke-linecap="round" stroke-linejoin="round" stroke-width="1"/>
                            <path id="Path_54"  d="M389.243,360.368a7.719,7.719,0,0,1-1.639,4.224c-1.7,1.7-4.83-.266-6.306-2.679,1.324,2.34,3.335,4.746,5.029,4.5C388.436,366.116,389.916,363.824,389.243,360.368Z" transform="translate(-374.826 -348.786)" fill="#fff" stroke="#263238" stroke-linecap="round" stroke-linejoin="round" stroke-width="1"/>
                        </g>
                    </g>
                </g>
                <g id="Group_23"  transform="translate(64.512 103.163)">
                    <path id="Path_55"  d="M349.137,210.736s.365.365-1.277,1.46-5.655,2.007-4.743,3.466,1.824,2.189,1.095,2.737-1.825.547-2.737,1.277-3.649-8.026-3.649-8.026S344.577,208.365,349.137,210.736Z" transform="translate(-337.827 -209.876)" fill="#fff"/>
                    <g id="Group_22"  clip-path="url(#clip-path-3)">
                        <path id="Path_56"  d="M349.137,210.736s.365.365-1.277,1.46-5.655,2.007-4.743,3.466,1.824,2.189,1.095,2.737-1.825.547-2.737,1.277-3.649-8.026-3.649-8.026S344.577,208.365,349.137,210.736Z" transform="translate(-337.827 -209.876)" fill="#918ec2"/>
                    </g>
                    <path id="Path_59"  d="M349.137,210.736s.365.365-1.277,1.46-5.655,2.007-4.743,3.466,1.824,2.189,1.095,2.737-1.825.547-2.737,1.277-3.649-8.026-3.649-8.026S344.577,208.365,349.137,210.736Z" transform="translate(-337.827 -209.876)" fill="none" stroke="#263238" stroke-linecap="round" stroke-linejoin="round" stroke-width="1"/>
                </g>
                <g id="Group_24"  transform="translate(17.447 103.841)">
                    <path id="Path_60"  d="M297.039,216.905l-1.642,9.486s-6.749,14.593-9.121,22.072-5.838,20.614-5.838,20.614,2.555,2.007,10.216,3.284,17.33-3.649,17.33-3.649,2.919-15.689,3.831-17.695,3.466-7.3,3.466-7.3h2.372l6.2,24.08s5.655,1.459,8.938,2.007,8.209.912,12.587-2.19a25.5,25.5,0,0,0,6.932-8.026s-6.932-16.418-10.033-23.167-10.216-18.242-10.216-18.242l-2.189-7.479Z" transform="translate(-280.438 -210.703)" fill="#263238" stroke="#263238" stroke-linecap="round" stroke-linejoin="round" stroke-width="1"/>
                    <line id="Line_1"  x2="7.662" y2="7.297" transform="translate(16.966 19.337)" fill="none" stroke="#fff" stroke-linecap="round" stroke-linejoin="round" stroke-width="1"/>
                    <line id="Line_2"  x2="1.265" y2="0.932" transform="translate(26.282 28.985)" fill="none" stroke="#fff" stroke-linecap="round" stroke-linejoin="round" stroke-width="1"/>
                    <line id="Line_3"  x2="7.674" y2="5.655" transform="translate(17.148 22.255)" fill="none" stroke="#fff" stroke-linecap="round" stroke-linejoin="round" stroke-width="1"/>
                    <path id="Path_61"  d="M309.263,280.638a26.547,26.547,0,0,0,3.177-1.424" transform="translate(-285.623 -223.028)" fill="none" stroke="#fff" stroke-linecap="round" stroke-linejoin="round" stroke-width="1"/>
                    <path id="Path_62"  d="M282.885,280.1a30.962,30.962,0,0,0,17.323,1.9" transform="translate(-280.878 -223.188)" fill="none" stroke="#fff" stroke-linecap="round" stroke-linejoin="round" stroke-width="1"/>
                    <path id="Path_63"  d="M334.268,276.5s12.588,8.027,26.269-7.3" transform="translate(-290.122 -221.227)" fill="none" stroke="#fff" stroke-linecap="round" stroke-linejoin="round" stroke-width="1"/>
                    <line id="Line_4"  x1="3.648" y2="6.932" transform="translate(50.166 14.046)" fill="none" stroke="#fff" stroke-linecap="round" stroke-linejoin="round" stroke-width="1"/>
                    <path id="Path_64"  d="M309.8,224.139a35.733,35.733,0,0,0,19.7-3.649" transform="translate(-285.72 -212.464)" fill="none" stroke="#fff" stroke-linecap="round" stroke-linejoin="round" stroke-width="1"/>
                </g>
                <g id="Group_26"  transform="translate(33.755 103.841)">
                    <path id="Path_65"  d="M334.636,214.748l-1.184-4.045-32.836,6.2-.292,1.69a37.725,37.725,0,0,0,16.528,1.046A84.371,84.371,0,0,0,334.636,214.748Z" transform="translate(-300.324 -210.703)" fill="#fff"/>
                    <g id="Group_25"  clip-path="url(#clip-path-4)">
                        <path id="Path_66"  d="M334.636,214.748l-1.184-4.045-32.836,6.2-.292,1.69a37.725,37.725,0,0,0,16.528,1.046A84.371,84.371,0,0,0,334.636,214.748Z" transform="translate(-300.324 -210.703)" fill="#949494" stroke="#263238" stroke-linecap="round" stroke-linejoin="round" stroke-width="1"/>
                    </g>
                    <path id="Path_68"  d="M334.636,214.748l-1.184-4.045-32.836,6.2-.292,1.69a37.725,37.725,0,0,0,16.528,1.046A84.371,84.371,0,0,0,334.636,214.748Z" transform="translate(-300.324 -210.703)" fill="none" stroke="#263238" stroke-linecap="round" stroke-linejoin="round" stroke-width="1"/>
                </g>
                <g id="Group_31"  transform="translate(7.758)">
                    <g id="Group_28" >
                        <path id="Path_69"  d="M346.955,121.887a111.921,111.921,0,0,0-7.1-18.914c-2.217-4.73-4.427-10.652-7.855-14.651-2.189-2.554-6.2-4.561-7.114-4.2s-4.926,2.007-4.926,4.2,1.46,2.189,1.46,2.189-.365,2.737.73,3.831,6.749.73,6.749.73a23.926,23.926,0,0,1,2.5,4.743c1.094,3.648,2.058,4.378,2.788,10.945a131.421,131.421,0,0,0,3.1,15.506,6.915,6.915,0,0,0-1.824,1.642c-1.095,1.277-8.027,8.209-8.027,8.209a42.778,42.778,0,0,1-6.2,2.371,30.355,30.355,0,0,0-5.4,2.258c-1.123-.129-2.255-.251-2.858-.251-1.277,0-10.216,1.642-10.216,1.642a30.329,30.329,0,0,0-6.567-2.919,42.87,42.87,0,0,1-6.2-2.372s-6.932-6.932-8.026-8.208A6.914,6.914,0,0,0,280.138,127a131.46,131.46,0,0,0,3.1-15.507c.59-5.3,2.109-11.318,5.29-15.688,0,0,5.655.365,6.749-.73s.73-3.831.73-3.831,1.459,0,1.459-2.189-4.013-3.831-4.925-4.2-4.926,1.642-7.114,4.2-2.007,5.108-4.2,8.756-9.85,21.343-10.762,24.809-2.007,5.473-1.825,7.114,8.939,11.128,11.128,13.682,10.58,11.31,10.58,11.31,3.1,15.324,4.014,20.8.365,20.614.365,20.614,10.033-2.19,19.519-3.284,19.883-4.743,21.16-4.743h1.277s-7.114-8.756-7.114-10.033c0-1.019.233-19.6.326-27.046,2.648-2.788,6.393-6.758,7.752-8.344C339.84,140.13,348.6,130.645,348.779,129S347.867,125.354,346.955,121.887Z" transform="translate(-268.625 -84.084)" fill="#fff"/>
                        <g id="Group_27"  clip-path="url(#clip-path-5)">
                            <path id="Path_70"  d="M346.955,121.887a111.921,111.921,0,0,0-7.1-18.914c-2.217-4.73-4.427-10.652-7.855-14.651-2.189-2.554-6.2-4.561-7.114-4.2s-4.926,2.007-4.926,4.2,1.46,2.189,1.46,2.189-.365,2.737.73,3.831,6.749.73,6.749.73a23.926,23.926,0,0,1,2.5,4.743c1.094,3.648,2.058,4.378,2.788,10.945a131.421,131.421,0,0,0,3.1,15.506,6.915,6.915,0,0,0-1.824,1.642c-1.095,1.277-8.027,8.209-8.027,8.209a42.778,42.778,0,0,1-6.2,2.371,30.355,30.355,0,0,0-5.4,2.258c-1.123-.129-2.255-.251-2.858-.251-1.277,0-10.216,1.642-10.216,1.642a30.329,30.329,0,0,0-6.567-2.919,42.87,42.87,0,0,1-6.2-2.372s-6.932-6.932-8.026-8.208A6.914,6.914,0,0,0,280.138,127a131.46,131.46,0,0,0,3.1-15.507c.59-5.3,2.109-11.318,5.29-15.688,0,0,5.655.365,6.749-.73s.73-3.831.73-3.831,1.459,0,1.459-2.189-4.013-3.831-4.925-4.2-4.926,1.642-7.114,4.2-2.007,5.108-4.2,8.756-9.85,21.343-10.762,24.809-2.007,5.473-1.825,7.114,8.939,11.128,11.128,13.682,10.58,11.31,10.58,11.31,3.1,15.324,4.014,20.8.365,20.614.365,20.614,10.033-2.19,19.519-3.284,19.883-4.743,21.16-4.743h1.277s-7.114-8.756-7.114-10.033c0-1.019.233-19.6.326-27.046,2.648-2.788,6.393-6.758,7.752-8.344C339.84,140.13,348.6,130.645,348.779,129S347.867,125.354,346.955,121.887Z" transform="translate(-268.625 -84.084)" fill="#d9d9d9" stroke="#263238" stroke-linecap="round" stroke-linejoin="round" stroke-width="1"/>
                            <path id="Path_71"  d="M295.461,182.8c-.548-2.554-1.277-17.33-2.19-22.073s-3.1-6.567-4.378-8.574-4.926-4.925-9.486-9.85-8.756-9.121-8.026-12.77c.508-2.537,5.426-16.808,8.375-25.265-3.058,6.273-8.525,19.087-9.287,21.981-.913,3.467-2.007,5.473-1.825,7.114s8.939,11.128,11.128,13.682,10.58,11.31,10.58,11.31,3.1,15.324,4.014,20.8a67.7,67.7,0,0,1,.515,8.846A18.292,18.292,0,0,0,295.461,182.8Z" transform="translate(-268.625 -87.714)" opacity="0.25"/>
                            <path id="Path_72"  d="M358.841,129.02c0,2.737-13.317,12.588-16.419,17.7s-2.189,17.695-2.189,22.8a53.073,53.073,0,0,1-.182,6.2l2.374,2.891c.025-2.917.235-19.673.323-26.653,2.648-2.788,6.394-6.758,7.752-8.344,2.189-2.554,10.945-12.039,11.128-13.681s-.913-3.649-1.825-7.114a111.9,111.9,0,0,0-7.1-18.915c-2.217-4.73-4.427-10.652-7.855-14.651,0,0,5.787,14.047,9.252,23.35S358.841,126.284,358.841,129.02Z" transform="translate(-281.474 -85.013)" opacity="0.25"/>
                        </g>
                        <path id="Path_74"  d="M346.955,121.887a111.921,111.921,0,0,0-7.1-18.914c-2.217-4.73-4.427-10.652-7.855-14.651-2.189-2.554-6.2-4.561-7.114-4.2s-4.926,2.007-4.926,4.2,1.46,2.189,1.46,2.189-.365,2.737.73,3.831,6.749.73,6.749.73a23.926,23.926,0,0,1,2.5,4.743c1.094,3.648,2.058,4.378,2.788,10.945a131.421,131.421,0,0,0,3.1,15.506,6.915,6.915,0,0,0-1.824,1.642c-1.095,1.277-8.027,8.209-8.027,8.209a42.778,42.778,0,0,1-6.2,2.371,30.355,30.355,0,0,0-5.4,2.258c-1.123-.129-2.255-.251-2.858-.251-1.277,0-10.216,1.642-10.216,1.642a30.329,30.329,0,0,0-6.567-2.919,42.87,42.87,0,0,1-6.2-2.372s-6.932-6.932-8.026-8.208A6.914,6.914,0,0,0,280.138,127a131.46,131.46,0,0,0,3.1-15.507c.59-5.3,2.109-11.318,5.29-15.688,0,0,5.655.365,6.749-.73s.73-3.831.73-3.831,1.459,0,1.459-2.189-4.013-3.831-4.925-4.2-4.926,1.642-7.114,4.2-2.007,5.108-4.2,8.756-9.85,21.343-10.762,24.809-2.007,5.473-1.825,7.114,8.939,11.128,11.128,13.682,10.58,11.31,10.58,11.31,3.1,15.324,4.014,20.8.365,20.614.365,20.614,10.033-2.19,19.519-3.284,19.883-4.743,21.16-4.743h1.277s-7.114-8.756-7.114-10.033c0-1.019.233-19.6.326-27.046,2.648-2.788,6.393-6.758,7.752-8.344C339.84,140.13,348.6,130.645,348.779,129S347.867,125.354,346.955,121.887Z" transform="translate(-268.625 -84.084)" fill="none" stroke="#263238" stroke-linecap="round" stroke-linejoin="round" stroke-width="1"/>
                    </g>
                    <g id="Group_29"  transform="translate(17.898 1.948)">
                        <path id="Path_75"  d="M300.928,92.241S296.367,88.41,296,90.052s2.737,3.831,2.737,3.831" transform="translate(-291.442 -87.032)" fill="none" stroke="#263238" stroke-linecap="round" stroke-linejoin="round" stroke-width="1"/>
                        <path id="Path_76"  d="M293.732,92.366a3.664,3.664,0,0,1-3.284,4.014" transform="translate(-290.448 -87.522)" fill="none" stroke="#263238" stroke-linecap="round" stroke-linejoin="round" stroke-width="1"/>
                        <path id="Path_77"  d="M296.766,92.678l-3.648-1.824.182-1.277,1.094-.547" transform="translate(-290.928 -86.921)" fill="none" stroke="#263238" stroke-linecap="round" stroke-linejoin="round" stroke-width="1"/>
                        <path id="Path_78"  d="M297.989,86.459a22.1,22.1,0,0,1,.34,3.06" transform="translate(-291.805 -86.459)" fill="none" stroke="#263238" stroke-linecap="round" stroke-linejoin="round" stroke-width="1"/>
                        <path id="Path_79"  d="M300.476,87.081a11.489,11.489,0,0,1,0,3.739" transform="translate(-292.252 -86.571)" fill="none" stroke="#263238" stroke-linecap="round" stroke-linejoin="round" stroke-width="1"/>
                        <path id="Path_80"  d="M302.495,88.117a3.337,3.337,0,0,1-1.19,3.06" transform="translate(-292.401 -86.757)" fill="none" stroke="#263238" stroke-linecap="round" stroke-linejoin="round" stroke-width="1"/>
                    </g>
                    <g id="Group_30"  transform="translate(52.699 1.608)">
                        <path id="Path_81"  d="M333,91.772s6.334-1.642,5.422.183-3.831,2.371-3.831,2.371" transform="translate(-332.904 -86.952)" fill="none" stroke="#263238" stroke-linecap="round" stroke-linejoin="round" stroke-width="1"/>
                        <path id="Path_82"  d="M343.478,93.9a15.605,15.605,0,0,0-2.554-1.642c-.912-.365-1.095-1.642-1.095-1.642s2.007-.365,2.007-1.277-1.459-1.642-1.459-1.642l-.183.912" transform="translate(-334.133 -86.341)" fill="none" stroke="#263238" stroke-linecap="round" stroke-linejoin="round" stroke-width="1"/>
                        <path id="Path_83"  d="M337.349,86.044s-.723,3.616,2.018,4.273" transform="translate(-333.671 -86.044)" fill="none" stroke="#263238" stroke-linecap="round" stroke-linejoin="round" stroke-width="1"/>
                        <path id="Path_84"  d="M334.865,86.252s-.509,2.719,1.19,4.079" transform="translate(-333.227 -86.081)" fill="none" stroke="#263238" stroke-linecap="round" stroke-linejoin="round" stroke-width="1"/>
                        <path id="Path_85"  d="M332.992,87.495s-.51,2.38.68,3.23" transform="translate(-332.883 -86.305)" fill="none" stroke="#263238" stroke-linecap="round" stroke-linejoin="round" stroke-width="1"/>
                    </g>
                </g>
                <g id="Group_33"  transform="translate(25.108 50.413)">
                    <path id="Path_86"  d="M318.056,203.909c9.485-1.095,19.883-4.743,21.16-4.743h1.277s-7.114-8.756-7.114-10.033c0-1.019.233-19.6.326-27.046,1.25-1.315,2.742-2.892,4.114-4.36-2-.6-4.179-1.641-4.987-3.436-1-2.222-.511-6.067.025-8.735-.95.955-1.616,1.621-1.616,1.621a42.783,42.783,0,0,1-6.2,2.371,30.354,30.354,0,0,0-5.4,2.258c-1.123-.129-2.255-.251-2.858-.251-1.277,0-10.216,1.642-10.216,1.642A30.33,30.33,0,0,0,300,150.276a42.866,42.866,0,0,1-6.2-2.372l-.266-.266a45.564,45.564,0,0,1,.266,9.022,5.719,5.719,0,0,1-4.014,4.52c2.334,2.467,4.379,4.6,4.379,4.6s3.1,15.324,4.014,20.8.365,20.614.365,20.614S308.57,205,318.056,203.909Z" transform="translate(-289.78 -145.555)" fill="#d0cee5" stroke="#263238" stroke-linecap="round" stroke-linejoin="round" stroke-width="1"/>
                    <g id="Group_32"  transform="translate(22.256 21.869)">
                        <path id="Path_87"  d="M318.966,174.8a21.8,21.8,0,0,1-2.048-2.574" transform="translate(-316.918 -172.221)" fill="none" stroke="#263238" stroke-linecap="round" stroke-linejoin="round" stroke-width="1"/>
                        <path id="Path_88"  d="M339.292,195.1A107.824,107.824,0,0,0,327.8,183.428c-2.109-1.789-3.8-3.353-5.15-4.68" transform="translate(-317.949 -173.395)" fill="none" stroke="#263238" stroke-linecap="round" stroke-linejoin="round" stroke-width="1"/>
                    </g>
                </g>
                <path id="Path_89"  d="M304.855,140.275s-.995-1.99-3.149-5.967-.332-10.939,7.789-13.591,13.259,2.32,14.42,5.635.166,6.961-.5,8.951a12.787,12.787,0,0,0-.663,3.646,6.315,6.315,0,0,0-1.491-1.326c-1.16-.829-3.149-9.613-5.8-10.276s-8.287.828-8.784,4.972S306.181,142.761,304.855,140.275Z" transform="translate(-266.667 -90.539)" fill="#263238" stroke="#263238" stroke-linecap="round" stroke-linejoin="round" stroke-width="1"/>
                <g id="Group_35"  transform="translate(55.317 45.901)">
                    <path id="Path_90"  d="M326.723,141.9s.995-2.817,2.32-1.492.663,4.144-.166,5.3-1.492.5-1.989-.829A6.33,6.33,0,0,1,326.723,141.9Z" transform="translate(-326.615 -140.053)" fill="#fff"/>
                    <g id="Group_34"  clip-path="url(#clip-path-6)">
                        <path id="Path_91"  d="M326.723,141.9s.995-2.817,2.32-1.492.663,4.144-.166,5.3-1.492.5-1.989-.829A6.33,6.33,0,0,1,326.723,141.9Z" transform="translate(-326.615 -140.053)" fill="#d9d9d9" stroke="#263238" stroke-linecap="round" stroke-linejoin="round" stroke-width="1"/>
                    </g>
                    <path id="Path_93"  d="M326.723,141.9s.995-2.817,2.32-1.492.663,4.144-.166,5.3-1.492.5-1.989-.829A6.33,6.33,0,0,1,326.723,141.9Z" transform="translate(-326.615 -140.053)" fill="none" stroke="#263238" stroke-linecap="round" stroke-linejoin="round" stroke-width="1"/>
                </g>
                <g id="Group_37"  transform="translate(36.012 48.01)">
                    <path id="Path_94"  d="M306.01,144s-1.718-2.444-2.637-.809.48,4.169,1.591,5.062,1.571.076,1.692-1.334A6.33,6.33,0,0,0,306.01,144Z" transform="translate(-303.075 -142.625)" fill="#fff"/>
                    <g id="Group_36"  clip-path="url(#clip-path-7)">
                        <path id="Path_95"  d="M306.01,144s-1.718-2.444-2.637-.809.48,4.169,1.591,5.062,1.571.076,1.692-1.334A6.33,6.33,0,0,0,306.01,144Z" transform="translate(-303.075 -142.625)" fill="#d9d9d9" stroke="#263238" stroke-linecap="round" stroke-linejoin="round" stroke-width="1"/>
                    </g>
                    <path id="Path_97"  d="M306.01,144s-1.718-2.444-2.637-.809.48,4.169,1.591,5.062,1.571.076,1.692-1.334A6.33,6.33,0,0,0,306.01,144Z" transform="translate(-303.075 -142.625)" fill="none" stroke="#263238" stroke-linecap="round" stroke-linejoin="round" stroke-width="1"/>
                </g>
                <path id="Path_98"  d="M309.362,153.327a36.031,36.031,0,0,0,.5,7.127,47.808,47.808,0,0,0,1.492,6.3l5.966-5.635,7.459,3.978s1.16-7.624-1.16-10.939-9.945-3.647-11.933-2.487A8.246,8.246,0,0,0,309.362,153.327Z" transform="translate(-268.191 -96.133)" fill="#fff" stroke="#263238" stroke-linecap="round" stroke-linejoin="round" stroke-width="1"/>
                <g id="Group_39"  transform="translate(43.326 58.521)">
                    <path id="Path_99"  d="M311.994,155.772s4.309,11.271,6.63,10.442,2.983-10.773,2.983-10.773S314.48,156.933,311.994,155.772Z" transform="translate(-311.994 -155.441)" fill="#fff"/>
                    <g id="Group_38"  clip-path="url(#clip-path-8)">
                        <path id="Path_100"  d="M311.994,155.772s4.309,11.271,6.63,10.442,2.983-10.773,2.983-10.773S314.48,156.933,311.994,155.772Z" transform="translate(-311.994 -155.441)" fill="#d9d9d9" stroke="#263238" stroke-linecap="round" stroke-linejoin="round" stroke-width="1"/>
                        <path id="Path_101"  d="M311.994,155.772s4.309,11.271,6.63,10.442,2.983-10.773,2.983-10.773S314.48,156.933,311.994,155.772Z" transform="translate(-311.994 -155.441)" opacity="0.25"/>
                    </g>
                    <path id="Path_103"  d="M311.994,155.772s4.309,11.271,6.63,10.442,2.983-10.773,2.983-10.773S314.48,156.933,311.994,155.772Z" transform="translate(-311.994 -155.441)" fill="none" stroke="#263238" stroke-linecap="round" stroke-linejoin="round" stroke-width="1"/>
                </g>
                <g id="Group_42"  transform="translate(37.54 34.588)">
                    <g id="Group_41" >
                        <path id="Path_104"  d="M305.089,136.6a87.144,87.144,0,0,0,1.823,10.607c.995,3.315,4.841,6.325,9.979,5.5s6.927-8.313,6.927-8.81-.332-9.448-2.321-12.762-5.8-6.464-11.105-3.978A8.784,8.784,0,0,0,305.089,136.6Z" transform="translate(-304.94 -126.259)" fill="#fff"/>
                        <g id="Group_40"  clip-path="url(#clip-path-9)">
                            <path id="Path_105"  d="M305.089,136.6a87.144,87.144,0,0,0,1.823,10.607c.995,3.315,4.841,6.325,9.979,5.5s6.927-8.313,6.927-8.81-.332-9.448-2.321-12.762-5.8-6.464-11.105-3.978A8.784,8.784,0,0,0,305.089,136.6Z" transform="translate(-304.94 -126.259)" fill="#d9d9d9" stroke="#263238" stroke-linecap="round" stroke-linejoin="round" stroke-width="1"/>
                            <path id="Path_106"  d="M323.819,144.551c0-.5-.332-9.448-2.321-12.762a12.827,12.827,0,0,0-1.364-1.871c.49,2.066,3,13.2,1.014,17-2.19,4.2-6.932,4.561-11.311,2.371-3.245-1.622-4.184-11.159-4.453-15.988a7.462,7.462,0,0,0-.3,3.959,87.149,87.149,0,0,0,1.823,10.608c.995,3.315,4.841,6.325,9.979,5.5S323.819,145.048,323.819,144.551Z" transform="translate(-304.94 -126.917)" opacity="0.25"/>
                        </g>
                        <path id="Path_108"  d="M305.089,136.6a87.144,87.144,0,0,0,1.823,10.607c.995,3.315,4.841,6.325,9.979,5.5s6.927-8.313,6.927-8.81-.332-9.448-2.321-12.762-5.8-6.464-11.105-3.978A8.784,8.784,0,0,0,305.089,136.6Z" transform="translate(-304.94 -126.259)" fill="none" stroke="#263238" stroke-linecap="round" stroke-linejoin="round" stroke-width="1"/>
                    </g>
                    <path id="Path_109"  d="M310.869,143.624a8.659,8.659,0,0,0,8.388-2.025c.738.25.463,4.7-3.616,5.351A4.22,4.22,0,0,1,310.869,143.624Z" transform="translate(-306.006 -129.019)" fill="#fff" stroke="#263238" stroke-linecap="round" stroke-linejoin="round" stroke-width="1"/>
                    <path id="Path_110"  d="M313.593,139.1s-1.012,1.416-.506,1.922a3.02,3.02,0,0,0,3.541-.506c1.012-1.113-.607-2.125-.607-2.125" transform="translate(-306.38 -128.442)" fill="none" stroke="#263238" stroke-linecap="round" stroke-linejoin="round" stroke-width="1"/>
                    <path id="Path_111"  d="M308.962,139.717s.5-1.657,3.149-1.657" transform="translate(-305.663 -128.382)" fill="none" stroke="#263238" stroke-linecap="round" stroke-linejoin="round" stroke-width="1"/>
                    <path id="Path_112"  d="M318.461,137.031a2.958,2.958,0,0,1,3.891-.441" transform="translate(-307.372 -128.016)" fill="none" stroke="#263238" stroke-linecap="round" stroke-linejoin="round" stroke-width="1"/>
                    <path id="Path_113"  d="M311.464,134s-3.79-.757-4.258,2.68" transform="translate(-305.347 -127.64)" fill="none" stroke="#263238" stroke-linecap="round" stroke-linejoin="round" stroke-width="2"/>
                    <path id="Path_114"  d="M317.3,133.275a3.944,3.944,0,0,1,5.155.157" transform="translate(-307.163 -127.356)" fill="none" stroke="#263238" stroke-linecap="round" stroke-linejoin="round" stroke-width="2"/>
                </g>
            </g>
        </g>
        <g id="Character_1"  transform="translate(86.392 204.88)">
            <g id="Group_55"  transform="translate(0 0)">
                <path id="Path_115"  d="M190.352,135.971a8.747,8.747,0,0,0-4.162-6.689c-4.162-2.824-14.121-1.189-17.836,3.567s-4.014,8.175-8.324,9.513-14.121,2.824-20.958,9.959-3.864,21.7-.743,22.891-.744-1.041-.3-4.906A5.787,5.787,0,0,1,141.6,165.4s-4.014,6.392,4.459,14.716,17.837,6.391,25.714,4.756,17.54-7.432,18.283-14.269-1.783-10.7,0-13.824,8.324-2.675,9.216-8.621S197.784,134.336,190.352,135.971Z" transform="translate(-126.904 -96.545)" fill="#263238" stroke="#263238" stroke-linecap="round" stroke-linejoin="round" stroke-width="1"/>
                <g id="Group_44"  transform="translate(92.078 140.209)">
                    <path id="Path_116"  d="M237.422,266.059s4.151-5.248,5.7-5.42,3.953,3.438,4.985,6.188,3.437,8.417,3.437,11.172c0,4.812-2.063,6.36-2.922,5.5s-3.093-6.188-4.3-7.219a7.143,7.143,0,0,0-2.608-1.381S239.115,268.213,237.422,266.059Z" transform="translate(-237.422 -260.633)" fill="#fff" stroke="#263238" stroke-linecap="round" stroke-linejoin="round" stroke-width="1"/>
                    <path id="Path_117"  d="M242.549,262.243s5.025,5.025,6.819,9.87,2.333,9.512.718,11.486" transform="translate(-238.344 -260.923)" fill="none" stroke="#263238" stroke-linecap="round" stroke-linejoin="round" stroke-width="1"/>
                </g>
                <g id="Group_45"  transform="translate(80.525 182.841)">
                    <path id="Path_118"  d="M225.632,312.617s4.985.344,6.7.516,1.718,4.3,1.031,7.219-1.547,4.812-.859,8.079-1.2,6.875-2.234,8.422-3.266,1.2-3.438,0,.516-8.25-1.891-12.2S222.881,315.367,225.632,312.617Z" transform="translate(-223.335 -312.617)" fill="#fff" stroke="#263238" stroke-linecap="round" stroke-linejoin="round" stroke-width="1"/>
                    <path id="Path_119"  d="M231.511,313.01a9.8,9.8,0,0,1,1.077,6.281c-.538,3.768.18,9.69.18,11.126s-1.974,7-2.692,7.178" transform="translate(-224.548 -312.688)" fill="none" stroke="#263238" stroke-linecap="round" stroke-linejoin="round" stroke-width="1"/>
                </g>
                <path id="Path_120"  d="M230.51,95.92c-.892,0-4.46.892-4.757,1.932S225.01,109,225.01,109s-6.243,11.891-8.324,16.35-7.58,15.16-7.58,15.16l-13.824,14.418s-2.081,1.041-5.648,3.121c-.339.2-.689.413-1.043.635l-6.538,1.447-5.648-1.041a94.142,94.142,0,0,0-8.324-5.8c-3.567-2.081-5.648-3.121-5.648-3.121l-13.824-14.417s-5.5-10.7-7.58-15.161-8.324-16.35-8.324-16.35-.445-10.108-.743-11.148-3.864-1.933-4.757-1.933-2.527,4.757-1.932,5.8S127.5,98,127.5,98a27.907,27.907,0,0,0,0,3.567c.148.743,2.378,2.229,2.378,2.229s3.121,12.931,5.2,21.85,4.757,14.864,5.946,15.9,12.931,12.931,15.31,16.945a47.563,47.563,0,0,0,6.689,8.175,69.131,69.131,0,0,0-1.338,10.108c0,3.567,3.567,11.148,4.757,14.567s2.675,19.322,2.675,19.769.743,10.256.743,10.256-8.026,17.54-10.553,30.025-1.338,19.62,4.459,22.3,32.106,6.391,32.849,7.283,1.338,1.486,2.378,1.486,2.378-.595,3.27,0,.892,1.041,1.933,1.041a3.2,3.2,0,0,1,2.377,1.634c.3.595,2.081-.595,2.676-5.054s-.3-6.54-1.189-6.689-.743-1.634-2.23-1.634a39.383,39.383,0,0,0-4.757.595,11.024,11.024,0,0,0-2.377-.446c-.892,0-1.933-.744-2.528-.892s-10.4-4.161-10.4-4.161l-.372-.2c9.922-5.664,24-15.678,24-15.678s4.041-.253,5.809-1.768a25.592,25.592,0,0,0,3.284-3.535l3.03-1.263a10.247,10.247,0,0,0-1.767-5.556c-1.768-2.273-2.526-3.284-2.526-3.284s-4.8,2.273-6.314,2.779-3.789.758-5.052,2.021-4.546,3.788-4.546,3.788L190.2,249.968s14.144-18.184,15.912-25.762c1.514-6.492-.8-13.673-4.693-18.909-2.928-3.943-7.036-6.944-10.155-10.75-1.489-1.817-2.633-3.163-2.522-3.944.172-1.2,1.584-7.269,2.861-12.435l3.985-7.649c.986-1.022,5.379-6.576,5.788-7.265,2.378-4.014,14.121-15.9,15.31-16.945s3.864-6.986,5.946-15.9,5.2-21.85,5.2-21.85,2.23-1.486,2.378-2.23a27.9,27.9,0,0,0,0-3.567s1.635,0,2.23-1.041S231.4,95.92,230.51,95.92Z" transform="translate(-125.146 -89.937)" fill="#fff" stroke="#263238" stroke-linecap="round" stroke-linejoin="round" stroke-width="1"/>
                <g id="Group_46"  transform="translate(32.91 110.068)">
                    <path id="Path_121"  d="M224.443,259.447s-4.8,2.273-6.314,2.779-3.789.758-5.052,2.021-4.546,3.788-4.546,3.788l-11.113,5.809s14.144-18.184,15.912-25.763c1.514-6.491-.8-13.672-4.693-18.908a43.794,43.794,0,0,0-4.867-5.292A60.843,60.843,0,0,1,193.7,231a28.173,28.173,0,0,1-17.38,3.709c.012.157.019.257.019.286,0,.446.743,10.256.743,10.256s-8.026,17.54-10.553,30.025-1.338,19.62,4.459,22.3,32.106,6.391,32.849,7.283,1.338,1.486,2.378,1.486,2.378-.595,3.27,0,.892,1.041,1.933,1.041a3.2,3.2,0,0,1,2.377,1.634c.3.595,2.081-.595,2.676-5.053s-.3-6.54-1.189-6.689-.743-1.635-2.23-1.635a39.381,39.381,0,0,0-4.757.595,11.024,11.024,0,0,0-2.377-.446c-.892,0-1.933-.744-2.528-.892s-10.4-4.161-10.4-4.161l-.372-.2c9.922-5.664,24-15.678,24-15.678s4.041-.253,5.809-1.768a25.59,25.59,0,0,0,3.284-3.535l3.03-1.263a10.247,10.247,0,0,0-1.767-5.556C225.2,260.457,224.443,259.447,224.443,259.447Z" transform="translate(-165.275 -223.88)" fill="#263238" stroke="#263238" stroke-linecap="round" stroke-linejoin="round" stroke-width="1"/>
                    <path id="Path_122"  d="M188.586,248.694l2.922,1.375s-12.2,29.391-13.922,37.813.344,12.548,3.609,12.548,12.548-4.813,12.548-4.813" transform="translate(-167.378 -228.344)" fill="none" stroke="#fff" stroke-linecap="round" stroke-linejoin="round" stroke-width="1"/>
                    <path id="Path_123"  d="M202.41,284.8s-7.325,10.779-9.388,13.357" transform="translate(-170.267 -234.84)" fill="none" stroke="#fff" stroke-linecap="round" stroke-linejoin="round" stroke-width="1"/>
                </g>
                <path id="Path_124"  d="M130.883,94.908s-2.973-4.162-3.419-5.053-1.338,1.635-.595,3.121a10.823,10.823,0,0,0,1.784,2.527s-1.189,3.567.595,5.053" transform="translate(-125.405 -89.668)" fill="#fff" stroke="#263238" stroke-linecap="round" stroke-linejoin="round" stroke-width="1"/>
                <path id="Path_125"  d="M248.417,101.7s2.973-4.162,3.419-5.054,1.338,1.635.595,3.121a10.79,10.79,0,0,1-1.784,2.528s1.189,3.567-.595,5.053" transform="translate(-147.322 -90.891)" fill="#fff" stroke="#263238" stroke-linecap="round" stroke-linejoin="round" stroke-width="1"/>
                <g id="Group_49"  transform="translate(6.986 21.657)">
                    <path id="Path_126"  d="M164.56,171.153a69.13,69.13,0,0,0-1.338,10.108c0,3.567,3.567,11.148,4.757,14.567s2.675,19.322,2.675,19.769c0,.126.06,1.006.145,2.2,5.259,1.463,16.105,1.963,29.028-11.585-2.349-2.387-4.915-4.6-7.031-7.184-1.488-1.817-2.633-3.163-2.522-3.944.172-1.2,1.584-7.269,2.861-12.435L197.12,175c.986-1.022,5.379-6.576,5.788-7.265,2.378-4.014,14.121-15.9,15.31-16.945s3.864-6.986,5.946-15.9c.768-3.292,1.678-7.13,2.52-10.664a18.974,18.974,0,0,1-4.824-1.707c-1.434,2.806-2.844,5.607-3.642,7.317-2.081,4.459-7.58,15.16-7.58,15.16l-13.824,14.418s-2.081,1.041-5.648,3.121c-.339.2-.689.413-1.043.635l-6.538,1.447-5.648-1.041a94.144,94.144,0,0,0-8.324-5.8c-3.567-2.081-5.648-3.121-5.648-3.121l-13.824-14.417s-5.5-10.7-7.58-15.161c-.958-2.054-2.8-5.682-4.506-9a43.1,43.1,0,0,1-4.392,1.584c.954,3.991,2.05,8.607,2.952,12.47,2.081,8.919,4.757,14.864,5.946,15.9s12.931,12.931,15.31,16.945A47.564,47.564,0,0,0,164.56,171.153Z" transform="translate(-133.664 -116.076)" fill="#d0cee5"/>
                    <g id="Group_48"  clip-path="url(#clip-path-10)">
                        <g id="Group_47"  transform="translate(1.421 5.434)">
                            <path id="Path_127"  d="M169.965,163.452c-.652-.346-1-.522-1-.522l-.82-.855-6.7,7.167a21.582,21.582,0,0,1,1.35,1.884Z" transform="translate(-140.081 -129.785)" fill="#263238"/>
                            <path id="Path_128"  d="M162.22,156.055l-1.58-1.648-7.389,5.834c.517.551,1.037,1.11,1.552,1.671Z" transform="translate(-138.609 -128.406)" fill="#263238"/>
                            <path id="Path_129"  d="M176.513,167.424c-.349-.218-.693-.429-1.025-.623s-.654-.379-.963-.557l-8.2,9.4c.506.627,1.01,1.217,1.485,1.755Z" transform="translate(-140.96 -130.535)" fill="#263238"/>
                            <path id="Path_130"  d="M154.289,148.043l-8.527,4.725c.451.445,1.018,1.014,1.668,1.675l8.486-4.7Z" transform="translate(-137.262 -127.261)" fill="#263238"/>
                            <path id="Path_131"  d="M179.644,169.619l-3.552,3.963a1.129,1.129,0,0,0-.432.249,1.107,1.107,0,0,0-.3.569l-5,5.578c.492.508.8.808.8.808s-.245,1.2-.526,2.855l.91-1.376c2.223.952,8.411,2.669,24.125,2.669q2.407,0,5.121-.057a1.125,1.125,0,0,0,.48-.121,4.7,4.7,0,0,0,1.905.924l.545-1.047c.2-.2.533-.594.943-1.084a7.439,7.439,0,0,1-.806-.044c-2.829-.344-4.556-6.37-5.305-11.795-.254.147-.514.3-.786.455-.339.2-.689.413-1.043.635l-.294.065c.121.786.265,1.615.442,2.464-10.866,2.8-16.516.525-18.62-.75l3.261-3.638C180.929,170.519,180.3,170.07,179.644,169.619Zm7.643,9.334a40.9,40.9,0,0,0,10.114-1.414,20.057,20.057,0,0,0,2.059,5.087c-16.93.272-23.926-1.358-26.421-2.232l3.668-4.093C178.267,177.344,181.591,178.953,187.287,178.953Z" transform="translate(-141.687 -131.142)" fill="#263238"/>
                            <path id="Path_132"  d="M144.878,131.088l-7.223,3.064q.285,1.15.58,2.223l7.656-3.248C145.541,132.43,145.2,131.743,144.878,131.088Z" transform="translate(-135.803 -124.211)" fill="#263238"/>
                            <path id="Path_133"  d="M141.131,122.7l-5.734,2.119q.266,1.121.527,2.229l6.221-2.3C141.84,124.125,141.5,123.435,141.131,122.7Z" transform="translate(-135.397 -122.702)" fill="#263238"/>
                            <path id="Path_134"  d="M149.891,141.436c-.315-.618-.663-1.3-1.032-2.031l-8.073,4.732q.434,1.172.846,2.14Z" transform="translate(-136.366 -125.707)" fill="#263238"/>
                            <path id="Path_135"  d="M231.6,142.863c-.367.728-.727,1.44-1.069,2.114,2.237,2.029,4.818,4.246,7.485,6.29.277-.672.563-1.415.854-2.221C236.274,147.023,233.76,144.837,231.6,142.863Z" transform="translate(-152.511 -126.329)" fill="#263238"/>
                            <path id="Path_136"  d="M197.675,209.079c.151-.687.333-1.494.538-2.385-11.964,1.657-20.764.211-25.755-1.149.353.914.71,1.808,1.052,2.657a60.734,60.734,0,0,0,14.075,1.555A77.99,77.99,0,0,0,197.675,209.079Z" transform="translate(-142.064 -137.605)" fill="#263238"/>
                            <path id="Path_137"  d="M235.205,135.639a77.382,77.382,0,0,0,6.731,4.4c.167-.654.333-1.321.495-2.013.023-.1.048-.205.071-.305a74.066,74.066,0,0,1-6.289-4.172C235.919,134.172,235.577,134.878,235.205,135.639Z" transform="translate(-153.352 -124.654)" fill="#263238"/>
                            <path id="Path_138"  d="M169.714,195.051c0,.125-.008.254-.008.372a9.777,9.777,0,0,0,.239,1.908,131.145,131.145,0,0,1,29.15,1.625c.176-.721.351-1.441.525-2.144l.039-.075C184.918,194.415,174.7,194.662,169.714,195.051Z" transform="translate(-141.569 -135.672)" fill="#263238"/>
                            <path id="Path_139"  d="M205.018,222.252c-.56-.542-1.11-1.092-1.657-1.644-8.556,5.749-18.738,8.087-25.141,9.028.089.852.166,1.628.232,2.3C185.164,230.987,195.927,228.532,205.018,222.252Z" transform="translate(-143.1 -140.315)" fill="#263238"/>
                            <path id="Path_140"  d="M176.778,219.2c.109.741.216,1.516.321,2.31.85.026,1.77.043,2.758.043a73.963,73.963,0,0,0,21.891-3.092c-.406-.444-.814-.886-1.2-1.35-.151-.185-.3-.362-.44-.536A77.126,77.126,0,0,1,176.778,219.2Z" transform="translate(-142.841 -139.589)" fill="#263238"/>
                            <path id="Path_141"  d="M225.473,153.11c1.96,2.422,4.125,4.828,6.234,7.043.607-.619,1.15-1.166,1.61-1.625-2.128-2.236-4.306-4.66-6.252-7.077Z" transform="translate(-151.601 -127.874)" fill="#263238"/>
                            <path id="Path_142"  d="M224.763,167.438c.518-.563,1.04-1.124,1.559-1.675a40.65,40.65,0,0,1-6.74-6.51l-1.593,1.662A42.572,42.572,0,0,0,224.763,167.438Z" transform="translate(-150.255 -129.277)" fill="#263238"/>
                            <path id="Path_143"  d="M216.878,176.735c.219-.369.518-.806.88-1.294-1.272-2.391-3.128-5.949-4.762-9.337l-1.678,1.75c1.815,3.716,3.818,7.511,4.984,9.686C216.6,177.15,216.8,176.86,216.878,176.735Z" transform="translate(-149.055 -130.51)" fill="#263238"/>
                        </g>
                        <path id="Path_144"  d="M226.473,124.478c-3.513,7.744-10.223,22.534-11.55,25.481-1.813,4.031-16.123,18.542-18.542,19.952s-3.829,4.837-4.837,8.465c-.96,3.453-3.738,6.178-4,9.908-1.38-1.053-4.069-1.931-7.886-2.249-7.256-.605-14.108,1.209-14.108-5.442s4.233-13.1,4.434-15.115-3.829,1.612-5.844.2-15.721-17.132-19.751-22.17c-2.569-3.212-7.131-16.514-10.1-25.742-.205.066-.406.132-.617.2.954,3.991,2.05,8.607,2.952,12.47,2.081,8.919,4.757,14.864,5.946,15.9s12.931,12.931,15.31,16.945a47.564,47.564,0,0,0,6.689,8.175,69.13,69.13,0,0,0-1.338,10.108c0,3.567,3.567,11.148,4.757,14.567s2.675,19.322,2.675,19.769c0,.126.06,1.006.145,2.2a19.365,19.365,0,0,0,2.207.475c-.136-6.23-1.174-19.222.6-22.061,1.928-3.085,11.228-3.22,13.973-4.99a15.31,15.31,0,0,0,3.36,9.021c1.466,1.925,4.809,4.557,8.017,6.857.29-.291.578-.581.869-.887-2.349-2.387-4.915-4.6-7.031-7.184-1.488-1.817-2.633-3.163-2.522-3.944.172-1.2,1.584-7.269,2.861-12.435l3.985-7.649c.986-1.022,5.379-6.576,5.788-7.265,2.378-4.014,14.121-15.9,15.31-16.945s3.864-6.986,5.946-15.9c.768-3.292,1.678-7.13,2.52-10.664C226.617,124.514,226.542,124.492,226.473,124.478Z" transform="translate(-133.664 -116.38)" opacity="0.25"/>
                    </g>
                    <path id="Path_146"  d="M164.56,171.153a69.13,69.13,0,0,0-1.338,10.108c0,3.567,3.567,11.148,4.757,14.567s2.675,19.322,2.675,19.769c0,.126.06,1.006.145,2.2,5.259,1.463,16.105,1.963,29.028-11.585-2.349-2.387-4.915-4.6-7.031-7.184-1.488-1.817-2.633-3.163-2.522-3.944.172-1.2,1.584-7.269,2.861-12.435L197.12,175c.986-1.022,5.379-6.576,5.788-7.265,2.378-4.014,14.121-15.9,15.31-16.945s3.864-6.986,5.946-15.9c.768-3.292,1.678-7.13,2.52-10.664a18.974,18.974,0,0,1-4.824-1.707c-1.434,2.806-2.844,5.607-3.642,7.317-2.081,4.459-7.58,15.16-7.58,15.16l-13.824,14.418s-2.081,1.041-5.648,3.121c-.339.2-.689.413-1.043.635l-6.538,1.447-5.648-1.041a94.144,94.144,0,0,0-8.324-5.8c-3.567-2.081-5.648-3.121-5.648-3.121l-13.824-14.417s-5.5-10.7-7.58-15.161c-.958-2.054-2.8-5.682-4.506-9a43.1,43.1,0,0,1-4.392,1.584c.954,3.991,2.05,8.607,2.952,12.47,2.081,8.919,4.757,14.864,5.946,15.9s12.931,12.931,15.31,16.945A47.564,47.564,0,0,0,164.56,171.153Z" transform="translate(-133.664 -116.076)" fill="none" stroke="#263238" stroke-linecap="round" stroke-linejoin="round" stroke-width="1"/>
                </g>
                <g id="Group_51"  transform="translate(45.616 57.561)">
                    <path id="Path_147"  d="M184.925,159.855s.148,9.364-.595,11.594-4.905,6.54-3.122,10.107,8.324-.445,10.7-4.756,1.189-5.649,1.189-5.649v-6.54Z" transform="translate(-180.768 -159.855)" fill="#fff"/>
                    <g id="Group_50"  clip-path="url(#clip-path-11)">
                        <path id="Path_148"  d="M193.793,164.612l-8.175-4.757s.148,9.364-.595,11.594a6.1,6.1,0,0,1-.4.895,8.4,8.4,0,0,0,4.806.1,12.467,12.467,0,0,0,4.368-3.064Z" transform="translate(-181.461 -159.855)" fill="#d0cee5"/>
                    </g>
                    <path id="Path_151"  d="M184.925,159.855s.148,9.364-.595,11.594-4.905,6.54-3.122,10.107,8.324-.445,10.7-4.756,1.189-5.649,1.189-5.649v-6.54Z" transform="translate(-180.768 -159.855)" fill="none" stroke="#263238" stroke-linecap="round" stroke-linejoin="round" stroke-width="1"/>
                </g>
                <g id="Group_54"  transform="translate(44.404 39.407)">
                    <g id="Group_53" >
                        <path id="Path_152"  d="M183.024,149.63s-2.824-2.676-3.567-.744,1.189,4.757,2.23,5.054l1.04.3a11.926,11.926,0,0,0,2.973,5.648c2.378,2.378,5.054,3.567,8.026,2.081s5.351-5.2,6.094-9.662a25.052,25.052,0,0,0,.446-6.689c0-.743-1.338-6.094-5.2-7.432s-3.419.3-6.392,3.716A69.847,69.847,0,0,0,183.024,149.63Z" transform="translate(-179.291 -137.719)" fill="#fff"/>
                        <g id="Group_52"  clip-path="url(#clip-path-12)">
                            <path id="Path_153"  d="M199.607,143.994c.239,2.465.648,8.841-1.119,11.892-2.218,3.83-4.434,7.457-8.868,5.643a11.025,11.025,0,0,1-5.845-6.449s-1.21.2-3.024-1.411a2.271,2.271,0,0,0-.647-.416,3.886,3.886,0,0,0,1.728,1.816l1.04.3a11.926,11.926,0,0,0,2.973,5.648c2.378,2.378,5.054,3.567,8.026,2.081s5.351-5.2,6.094-9.662a25.053,25.053,0,0,0,.446-6.689A9.626,9.626,0,0,0,199.607,143.994Z" transform="translate(-179.437 -138.848)" fill="#9c9aab"/>
                        </g>
                        <path id="Path_156"  d="M183.024,149.63s-2.824-2.676-3.567-.744,1.189,4.757,2.23,5.054l1.04.3a11.926,11.926,0,0,0,2.973,5.648c2.378,2.378,5.054,3.567,8.026,2.081s5.351-5.2,6.094-9.662a25.052,25.052,0,0,0,.446-6.689c0-.743-1.338-6.094-5.2-7.432s-3.419.3-6.392,3.716A69.847,69.847,0,0,0,183.024,149.63Z" transform="translate(-179.291 -137.719)" fill="none" stroke="#263238" stroke-linecap="round" stroke-linejoin="round" stroke-width="1"/>
                    </g>
                    <path id="Path_157"  d="M198.527,148.618s-1.041,1.932-.595,2.378,1.932,1.338,1.189,1.784a5.554,5.554,0,0,1-2.23.445" transform="translate(-182.457 -139.679)" fill="none" stroke="#263238" stroke-linecap="round" stroke-linejoin="round" stroke-width="1"/>
                    <path id="Path_158"  d="M191.636,154.961s1.784,2.081,7.433,1.338c0,0-3.419,3.419-4.906,3.419S191.636,154.961,191.636,154.961Z" transform="translate(-181.512 -140.821)" fill="none" stroke="#263238" stroke-linecap="round" stroke-linejoin="round" stroke-width="1"/>
                    <path id="Path_159"  d="M190.368,149.112s2.081-.744,3.27.445" transform="translate(-181.283 -139.727)" fill="none" stroke="#263238" stroke-linecap="round" stroke-linejoin="round" stroke-width="1"/>
                    <path id="Path_160"  d="M199.43,150.574s2.378-.743,2.824.892" transform="translate(-182.914 -140.001)" fill="none" stroke="#263238" stroke-linecap="round" stroke-linejoin="round" stroke-width="1"/>
                    <path id="Path_161"  d="M190.186,145.817a3.36,3.36,0,0,1,3.865-.891" transform="translate(-181.251 -138.96)" fill="none" stroke="#263238" stroke-linecap="round" stroke-linejoin="round" stroke-width="1"/>
                    <path id="Path_162"  d="M199.792,146.88s1.932-1.784,3.271,1.486" transform="translate(-182.979 -139.28)" fill="none" stroke="#263238" stroke-linecap="round" stroke-linejoin="round" stroke-width="1"/>
                </g>
            </g>
        </g>
    </g>
</svg>
