<svg version="1.1" viewBox="0 0 27 21" xmlns="http://www.w3.org/2000/svg">
 <g transform="translate(0 -3.2)" fill="#b0aed3" shape-rendering="auto">
  <path transform="translate(-1.2 -.86)" d="m26 9.7h-0.73v8c0.12 1.3-0.89 2.4-2.2 2.4h-14v0.38c0.18 1.3 1.3 2.2 2.5 2.2h11l4.2 2.4-0.6-2.5h0.16c1.2-0.049 2-1.1 1.9-2.2v-8.9c0.12-1.1-0.79-2-1.9-1.9z" color="#000000" color-rendering="auto" dominant-baseline="auto" image-rendering="auto" solid-color="#000000" stop-color="#000000" style="font-feature-settings:normal;font-variant-alternates:normal;font-variant-caps:normal;font-variant-east-asian:normal;font-variant-ligatures:normal;font-variant-numeric:normal;font-variant-position:normal;font-variation-settings:normal;inline-size:0;isolation:auto;mix-blend-mode:normal;shape-margin:0;shape-padding:0;text-decoration-color:#000000;text-decoration-line:none;text-decoration-style:solid;text-indent:0;text-orientation:mixed;text-transform:none;white-space:normal"/>
  <path d="m20 3.2h-17c-1.5 0-3.1 1.3-3.1 2.5v10c0 1.1 1.4 2 2.8 2.1l-0.88 3.4 5.7-3.3h12c1.5 0 2.8-0.88 2.8-2.1v-10c-0.16-1.4-1.4-2.5-2.8-2.5zm-14 8.5c-1.3 0-2-1.6-1.1-2.6 0.94-0.94 2.6-0.28 2.6 1.1 0 0.83-0.67 1.5-1.5 1.5zm5.6 0c-1.3 0-2-1.6-1.1-2.6 0.94-0.94 2.6-0.28 2.6 1.1 0 0.83-0.67 1.5-1.5 1.5zm5.6 0c-1.3 0-2-1.6-1.1-2.6 0.94-0.94 2.6-0.28 2.6 1.1 0 0.83-0.67 1.5-1.5 1.5z" color="#000000" color-rendering="auto" dominant-baseline="auto" image-rendering="auto" solid-color="#000000" stop-color="#000000" style="font-feature-settings:normal;font-variant-alternates:normal;font-variant-caps:normal;font-variant-east-asian:normal;font-variant-ligatures:normal;font-variant-numeric:normal;font-variant-position:normal;font-variation-settings:normal;inline-size:0;isolation:auto;mix-blend-mode:normal;shape-margin:0;shape-padding:0;text-decoration-color:#000000;text-decoration-line:none;text-decoration-style:solid;text-indent:0;text-orientation:mixed;text-transform:none;white-space:normal"/>
 </g>
</svg>
