<svg version="1.1" viewBox="0 0 120 120" xmlns="http://www.w3.org/2000/svg">
    <g transform="translate(-40 -40)">
        <path transform="translate(0)"
            d="m100 40c24 0 46 15 56 37 9.3 23 4.2 48-13 66-17 17-43 22-66 13-23-9.3-37-31-37-56-5.5e-4 -33 27-60 60-60zm-7.7 66c0.99-3.6 6.4-2.1 5.4 1.5-3.9 14-26 31-26 31-3 2.2-6.4-2.3-3.4-4.5 0.058-0.045 21-16 24-28zm-7.6-49c-3.7 0.71-4.7-4.8-1.1-5.6 35-6.9 53 16 53 16 2.5 2.9-2 6.6-4.4 3.6-0.044-0.061-16-20-48-14zm-12 13c-3.3 1.8-6-3.2-2.7-5 12-6.2 26-7.6 38-3.8 16 5 27 18 33 33 1.3 3.5-4 5.5-5.3 1.9-5.1-14-15-25-29-30-11-3.4-24-2.2-34 3.3zm-10 18c-2.8 2.5-6.5-1.7-3.8-4.2 11-9.7 25-17 39-15 20 1.8 36 20 35 40-0.58 7.9-3.5 16-6.9 24-1.4 3.5-6.6 1.3-5.2-2.1 3.2-8 5.9-15 6.5-23 1.3-17-13-33-30-34-13-1.2-26 5.4-35 14zm1.2 17c-3.2 2-6.2-2.8-3-4.8 10-6.5 12-18 24-22 16-5.2 32 2.1 38 18 8.3 25-18 49-18 49-2.8 2.5-6.6-1.7-3.8-4.2 0.069-0.063 24-21 17-43-4.4-13-18-19-31-15-10 3.4-12 15-23 21zm-0.17 14c-3.1 2.1-6.2-2.7-3.1-4.7 9.5-6.3 12-10 16-17 18-28 49-3.1 36 22-14 26-27 30-27 30-3.6 1-5.1-4.4-1.6-5.4 0.033-9e-3 11-3.1 24-27 9.5-19-12-38-26-16-4.4 6.7-7.4 11-18 18zm3.4 10c-3.4 1.6-5.8-3.5-2.4-5.1 6.7-3.2 16-14 19-21 9.5-21 32-4.3 21 14-5.7 9.1-16 24-27 28-3.5 1.2-5.4-4.1-1.9-5.3 8.8-3.1 19-17 24-25 6.8-11-4.6-22-11-8.3-3.6 7.9-13 20-21 23z"
            color="#000000" color-rendering="auto" fill="#b0aed3" fill-rule="evenodd"
            image-rendering="auto" shape-rendering="auto"
            style="font-feature-settings:normal;font-variant-alternates:normal;font-variant-caps:normal;font-variant-east-asian:normal;font-variant-ligatures:normal;font-variant-numeric:normal;font-variant-position:normal;font-variation-settings:normal;inline-size:0;isolation:auto;mix-blend-mode:normal;shape-margin:0;shape-padding:0;text-decoration-color:#000000;text-decoration-line:none;text-decoration-style:solid;text-indent:0;text-orientation:mixed;text-transform:none;white-space:normal" />
    </g>
</svg>
