<svg xmlns="http://www.w3.org/2000/svg" width="54.706" height="81.76" viewBox="0 0 54.706 81.76">
    <g id="Group_11798" transform="translate(-59.99 0.99)">
        <path id="Path_2606"
            d="M7.069,31.313h1.2V19.084a19.076,19.076,0,0,1,38.151,0V31.313h1.2A7.1,7.1,0,0,1,54.7,38.39v36.3a7.1,7.1,0,0,1-7.077,7.077H7.067A7.1,7.1,0,0,1-.01,74.693V38.39a7.1,7.1,0,0,1,7.077-7.077Zm6.981,0H40.636V19.084a13.293,13.293,0,0,0-26.586,0V31.313Zm13.293,15.73a4.8,4.8,0,0,1,2.273,9.037l1.342,9.958H23.729l1.342-9.956a4.805,4.805,0,0,1,2.271-9.039Z"
            transform="translate(60 -1)" fill="#efeef6" fill-rule="evenodd" />
    </g>
</svg>
