<svg xmlns="http://www.w3.org/2000/svg" width="84" height="84" viewBox="0 0 84 84">
    <g id="Group_11796" transform="translate(-8 -960.362)">
        <path id="Path_2604"
            d="M50,8A42,42,0,1,0,92,50,42,42,0,0,0,50,8Zm0,9a2,2,0,0,1,2,2V42.75l8.281-13.781A2.145,2.145,0,0,1,62,28a2.007,2.007,0,0,1,1.719,3.031L51.719,51A1.992,1.992,0,0,1,48,50V19A2,2,0,0,1,50,17ZM19,48h5a2,2,0,0,1,0,4H19a2,2,0,0,1,0-4Zm57,0h5a2,2,0,0,1,0,4H76a2,2,0,0,1,0-4ZM50,74a2,2,0,0,1,2,2v5a2,2,0,0,1-4,0V76A2,2,0,0,1,50,74Z"
            transform="translate(0 952.362)" fill="#f6f6fe" />
    </g>
</svg>
