<svg version="1.1" viewBox="0 0 26 26" xmlns="http://www.w3.org/2000/svg">
 <g transform="translate(.003)">
  <g transform="translate(-.003)" fill="#b0aed3" shape-rendering="auto">
   <path transform="translate(-1 -.033)" d="m12 15c-1.7-1.6-2.8-3.7-3.2-6-0.035-0.27 0.059-0.55 0.26-0.75l2-2c0.29-0.3 0.35-0.75 0.13-1.1l-3.2-5c-0.25-0.39-0.75-0.53-1.2-0.33l-5.1 2.4c-0.33 0.16-0.53 0.52-0.49 0.89 0.7 5.7 3.4 11 7.6 15 4 4.2 9.3 6.9 15 7.6 0.37 0.038 0.73-0.16 0.89-0.49l2.4-5.1c0.2-0.41 0.064-0.91-0.32-1.2l-5-3.2c-0.35-0.22-0.81-0.17-1.1 0.13l-2 2c-0.2 0.2-0.47 0.29-0.75 0.26-2.3-0.37-4.4-1.5-6-3.2z" color="#000000" color-rendering="auto" dominant-baseline="auto" image-rendering="auto" solid-color="#000000" stop-color="#000000" style="font-feature-settings:normal;font-variant-alternates:normal;font-variant-caps:normal;font-variant-east-asian:normal;font-variant-ligatures:normal;font-variant-numeric:normal;font-variant-position:normal;font-variation-settings:normal;inline-size:0;isolation:auto;mix-blend-mode:normal;shape-margin:0;shape-padding:0;text-decoration-color:#000000;text-decoration-line:none;text-decoration-style:solid;text-indent:0;text-orientation:mixed;text-transform:none;white-space:normal"/>
   <path transform="translate(-16 -5.5)" d="m37 19c-0.5 0-0.9-0.4-0.9-0.9-6e-3 -3.7-3-6.7-6.7-6.7-1.1-0.097-1.1-1.7 0-1.8 4.7 0.0055 8.5 3.8 8.5 8.5-0.0017 0.5-0.4 0.9-0.9 0.9z" color="#000000" color-rendering="auto" dominant-baseline="auto" image-rendering="auto" solid-color="#000000" stop-color="#000000" style="font-feature-settings:normal;font-variant-alternates:normal;font-variant-caps:normal;font-variant-east-asian:normal;font-variant-ligatures:normal;font-variant-numeric:normal;font-variant-position:normal;font-variation-settings:normal;inline-size:0;isolation:auto;mix-blend-mode:normal;shape-margin:0;shape-padding:0;text-decoration-color:#000000;text-decoration-line:none;text-decoration-style:solid;text-indent:0;text-orientation:mixed;text-transform:none;white-space:normal"/>
   <path transform="translate(-16)" d="m41 14c-0.5 0-0.9-0.4-0.9-0.9-0.0072-6.2-5-11-11-11-1.1-0.097-1.1-1.7 0-1.8 7.2 0.0077 13 5.8 13 13 0 0.5-0.4 0.9-0.9 0.9z" color="#000000" color-rendering="auto" dominant-baseline="auto" image-rendering="auto" solid-color="#000000" stop-color="#000000" style="font-feature-settings:normal;font-variant-alternates:normal;font-variant-caps:normal;font-variant-east-asian:normal;font-variant-ligatures:normal;font-variant-numeric:normal;font-variant-position:normal;font-variation-settings:normal;inline-size:0;isolation:auto;mix-blend-mode:normal;shape-margin:0;shape-padding:0;text-decoration-color:#000000;text-decoration-line:none;text-decoration-style:solid;text-indent:0;text-orientation:mixed;text-transform:none;white-space:normal"/>
  </g>
 </g>
</svg>
